<svg width="181" height="78" viewBox="0 0 181 78" fill="none" xmlns="http://www.w3.org/2000/svg">
<path d="M35.7409 49.4862C25.0987 49.4862 17.9138 41.3289 17.9138 30.8488C17.9138 20.4226 25.0987 12.2654 35.7409 12.2654C46.3291 12.2654 53.568 20.4226 53.568 30.8488C53.568 41.3289 46.3291 49.4862 35.7409 49.4862ZM35.7949 43.6519C43.3579 43.6519 47.1935 38.3578 47.1935 30.8488C47.1935 23.3938 43.3579 18.0457 35.7949 18.0457C28.2319 18.0457 24.3424 23.3938 24.3424 30.8488C24.3424 38.3578 28.2319 43.6519 35.7949 43.6519ZM65.3962 49H59.3458V22.6915H65.3962V30.1465C66.3686 25.9328 69.0156 22.1513 73.7155 22.1513C77.0108 22.1513 79.4418 24.3122 79.4418 28.2017C79.4418 30.7407 78.7395 32.6315 78.2533 33.4418H72.0408C72.9052 32.5775 73.7155 30.8488 73.7155 29.3362C73.7155 27.8776 73.0132 26.6891 71.2305 26.6891C68.2053 26.6891 65.3962 30.1465 65.3962 34.5222V49ZM89.3999 18.964H83.3495V12.8056H89.3999V18.964ZM89.3999 49H83.3495V22.6915H89.3999V49ZM107.468 49.5402C99.6353 49.5402 94.5032 44.084 94.5032 35.8728C94.5032 27.6075 99.6353 22.1513 107.036 22.1513C114.923 22.1513 119.299 27.3914 119.299 34.6843C119.299 35.6567 119.191 36.7911 119.083 37.3314H100.284C100.608 42.0312 103.363 44.5702 107.522 44.5702C112.114 44.5702 114.167 42.1933 115.139 39.9784L118.867 43.868C116.868 46.8932 113.303 49.5402 107.468 49.5402ZM107.036 27.0132C103.309 27.0132 100.824 29.1741 100.338 33.4418H113.843C113.411 29.2821 111.034 27.0132 107.036 27.0132ZM130.76 49H124.71V12.8056H130.76V49Z" fill="white"/>
<path d="M146.925 42.0125C149.611 40.1634 151.706 38.5159 153.274 37.0373C154.794 35.6044 156.038 34.1303 156.754 32.5776C157.126 31.7702 157.419 30.8039 157.436 29.7252C157.454 28.5944 157.164 27.5247 156.61 26.6125C155.591 24.9327 153.957 24.2106 152.837 23.8625C150.495 23.1347 147.46 23.1707 144.983 23.4062C142.459 23.6462 139.871 24.1601 138.263 24.7767C136.292 25.5325 135.657 27.7317 136.075 29.3733C136.51 31.0836 138.336 32.7904 140.591 31.9257C141.418 31.6086 143.353 31.1719 145.594 30.9589C146.927 30.8322 148.152 30.8068 149.151 30.8725C149.017 31.0075 148.87 31.1503 148.71 31.3008C147.494 32.4477 145.709 33.8717 143.192 35.6045C137.415 39.5806 128.652 43.0854 118.072 46.0046C107.556 48.9065 95.4941 51.1637 83.2939 52.7651C58.8159 55.9782 34.1972 56.4992 20.7416 54.4744C16.9646 53.906 14.1655 52.9608 12.2607 51.8839C10.3215 50.7876 9.61083 49.7362 9.39623 49.1218C9.24279 48.6825 9.16727 47.9897 9.87535 46.7903C10.6442 45.4878 12.2314 43.8367 15.0082 42.0905C16.7057 41.0231 17.0956 38.8311 16.4263 37.2286C16.0622 36.3569 15.3829 35.613 14.4564 35.2465C13.5046 34.8701 12.4239 34.9531 11.5121 35.5264C8.20106 37.6085 5.60294 39.9956 4.02239 42.6729C2.38622 45.4445 1.78887 48.6738 2.89387 51.8375C3.93542 54.8195 6.25112 57.0355 9.03721 58.6107C11.8598 60.2064 15.4908 61.3387 19.7801 61.9841C34.0966 64.1385 59.3968 63.539 84.1346 60.2919C96.5424 58.6632 108.913 56.3554 119.796 53.3523C130.617 50.3665 140.222 46.6262 146.925 42.0125ZM152.266 29.9549L152.452 30.0406L152.266 29.9549Z" fill="url(#paint0_linear_42_35)" stroke="#171717" stroke-width="4.22043" stroke-linecap="round"/>
<path fill-rule="evenodd" clip-rule="evenodd" d="M173.892 28.1664C173.86 28.1457 173.829 28.1247 173.797 28.1035C173.828 28.125 173.859 28.1468 173.89 28.1687L173.892 28.1664ZM171.727 17.3954C169.353 20.8972 170.249 25.6583 173.73 28.058C170.526 25.8977 166.276 26.468 163.742 29.246C165.407 25.8603 164.372 21.6778 161.164 19.4908C161.164 19.4908 161.164 19.4908 161.164 19.4908L161.165 19.4896C164.661 21.7741 169.357 20.8537 171.727 17.3954ZM171.75 17.3624C171.775 17.3254 171.801 17.2887 171.827 17.2523L171.824 17.2506C171.8 17.288 171.775 17.3253 171.75 17.3624Z" fill="#C285FF"/>
<path fill-rule="evenodd" clip-rule="evenodd" d="M152.908 65.3011C152.828 65.2981 152.747 65.2945 152.667 65.2901C152.747 65.295 152.827 65.3004 152.908 65.3066L152.908 65.3011ZM139.052 50.1309C138.626 58.0405 144.667 64.8109 152.574 65.2849C145.344 64.8973 139.066 69.9137 137.681 76.8179C137.085 69.7861 131.393 64.082 124.143 63.6703C124.143 63.6703 124.143 63.6703 124.142 63.6703L124.143 63.6675C131.948 63.9572 138.584 57.9571 139.052 50.1309ZM139.056 50.0452C139.061 49.9635 139.067 49.8819 139.073 49.8006L139.068 49.8003C139.065 49.8818 139.061 49.9635 139.056 50.0452Z" fill="#902BF5"/>
<path fill-rule="evenodd" clip-rule="evenodd" d="M164.532 36.3077L164.528 36.3088C164.547 36.3788 164.565 36.4491 164.583 36.5197C166.024 42.2879 162.453 48.1614 156.588 49.746L156.589 49.7479C156.589 49.7478 156.589 49.7478 156.589 49.7478C162.06 48.3814 167.57 51.1951 169.598 56.137C169.066 50.8371 172.584 45.7768 178.028 44.393C172.051 45.8597 166.038 42.3431 164.583 36.5197C164.566 36.4491 164.549 36.3784 164.532 36.3077ZM178.292 44.3251L178.293 44.329C178.236 44.342 178.18 44.3554 178.123 44.3692C178.18 44.3549 178.236 44.3402 178.292 44.3251Z" fill="#AD5EFB"/>
<defs>
<linearGradient id="paint0_linear_42_35" x1="4.44165" y1="43.255" x2="141.442" y2="43.255" gradientUnits="userSpaceOnUse">
<stop offset="0.554496" stop-color="white"/>
<stop offset="1" stop-color="#BD7EFD"/>
</linearGradient>
</defs>
</svg>
