<svg width="12" height="12" viewBox="0 0 12 12" fill="none" xmlns="http://www.w3.org/2000/svg">
<g id="mdi:keyboard-esc">
<path id="Vector" d="M0.5 3.5H3.5V4.5H1.5V5.5H3.5V6.5H1.5V7.5H3.5V8.5H0.5V3.5ZM5.5 3.5H7.5V4.5H5.5V5.5H6.5C6.76522 5.5 7.01957 5.60536 7.20711 5.79289C7.39464 5.98043 7.5 6.23478 7.5 6.5V7.5C7.5 8.055 7.055 8.5 6.5 8.5H4.5V7.5H6.5V6.5H5.5C5.23478 6.5 4.98043 6.39464 4.79289 6.20711C4.60536 6.01957 4.5 5.76522 4.5 5.5V4.5C4.5 3.95 4.95 3.5 5.5 3.5ZM9.5 3.5H10.5C10.7652 3.5 11.0196 3.60536 11.2071 3.79289C11.3946 3.98043 11.5 4.23478 11.5 4.5V5H10.5V4.5H9.5V7.5H10.5V7H11.5V7.5C11.5 8.055 11.055 8.5 10.5 8.5H9.5C9.23478 8.5 8.98043 8.39464 8.79289 8.20711C8.60536 8.01957 8.5 7.76522 8.5 7.5V4.5C8.5 3.95 8.95 3.5 9.5 3.5Z" fill="#2F2F2F"/>
</g>
</svg>
