<svg width="27" height="24" viewBox="0 0 27 24" fill="none" xmlns="http://www.w3.org/2000/svg">
<path fill-rule="evenodd" clip-rule="evenodd" d="M9.70452 0.301304L9.69908 0.302662C9.72175 0.386237 9.74363 0.470224 9.76471 0.554616C11.4855 7.44386 7.22119 14.459 0.216365 16.3515L0.216933 16.3538C0.216948 16.3538 0.216963 16.3538 0.216978 16.3538C6.75098 14.7217 13.3323 18.0823 15.755 23.9847C15.1196 17.6553 19.3206 11.6121 25.8213 9.95859C18.6825 11.7091 11.5022 7.50923 9.76509 0.554627C9.744 0.470202 9.72382 0.385757 9.70452 0.301304ZM25.9383 9.92935C26.0051 9.91236 26.0716 9.89492 26.1379 9.87702L26.1391 9.88169C26.0721 9.89706 26.0052 9.91294 25.9383 9.92935Z" fill="#AD5EFB"/>
</svg>
